<svg width="184" height="29" viewBox="0 0 184 29" fill="none" xmlns="http://www.w3.org/2000/svg">
<path d="M41.51 8.514V13.882H49.232V15.774H41.51V22H39.31V6.6H50.178V8.514H41.51ZM54.776 12.298C55.1427 11.6233 55.6853 11.11 56.404 10.758C57.1227 10.406 57.9953 10.23 59.022 10.23V12.276C58.9047 12.2613 58.7433 12.254 58.538 12.254C57.394 12.254 56.492 12.5987 55.832 13.288C55.1867 13.9627 54.864 14.9307 54.864 16.192V22H52.752V10.34H54.776V12.298ZM66.5116 22.132C65.353 22.132 64.3116 21.8753 63.3876 21.362C62.4636 20.8487 61.7376 20.1447 61.2096 19.25C60.6963 18.3407 60.4396 17.314 60.4396 16.17C60.4396 15.026 60.6963 14.0067 61.2096 13.112C61.7376 12.2027 62.4636 11.4987 63.3876 11C64.3116 10.4867 65.353 10.23 66.5116 10.23C67.6703 10.23 68.7043 10.4867 69.6136 11C70.5376 11.4987 71.2563 12.2027 71.7696 13.112C72.2976 14.0067 72.5616 15.026 72.5616 16.17C72.5616 17.314 72.2976 18.3407 71.7696 19.25C71.2563 20.1447 70.5376 20.8487 69.6136 21.362C68.7043 21.8753 67.6703 22.132 66.5116 22.132ZM66.5116 20.284C67.2596 20.284 67.927 20.1153 68.5136 19.778C69.115 19.426 69.5843 18.942 69.9216 18.326C70.259 17.6953 70.4276 16.9767 70.4276 16.17C70.4276 15.3633 70.259 14.652 69.9216 14.036C69.5843 13.4053 69.115 12.9213 68.5136 12.584C67.927 12.2467 67.2596 12.078 66.5116 12.078C65.7636 12.078 65.089 12.2467 64.4876 12.584C63.901 12.9213 63.4316 13.4053 63.0796 14.036C62.7423 14.652 62.5736 15.3633 62.5736 16.17C62.5736 16.9767 62.7423 17.6953 63.0796 18.326C63.4316 18.942 63.901 19.426 64.4876 19.778C65.089 20.1153 65.7636 20.284 66.5116 20.284ZM86.6365 10.34V20.416C86.6365 22.4547 86.1305 23.958 85.1185 24.926C84.1065 25.9087 82.5958 26.4 80.5865 26.4C79.4865 26.4 78.4378 26.246 77.4405 25.938C76.4431 25.6447 75.6365 25.2193 75.0205 24.662L76.0325 23.034C76.5751 23.5033 77.2425 23.87 78.0345 24.134C78.8411 24.4127 79.6698 24.552 80.5205 24.552C81.8845 24.552 82.8891 24.2293 83.5345 23.584C84.1945 22.9387 84.5245 21.956 84.5245 20.636V19.712C84.0258 20.3133 83.4098 20.768 82.6765 21.076C81.9578 21.3693 81.1731 21.516 80.3225 21.516C79.2078 21.516 78.1958 21.2813 77.2865 20.812C76.3918 20.328 75.6878 19.6607 75.1745 18.81C74.6611 17.9447 74.4045 16.962 74.4045 15.862C74.4045 14.762 74.6611 13.7867 75.1745 12.936C75.6878 12.0707 76.3918 11.4033 77.2865 10.934C78.1958 10.4647 79.2078 10.23 80.3225 10.23C81.2025 10.23 82.0165 10.3913 82.7645 10.714C83.5271 11.0367 84.1505 11.5133 84.6345 12.144V10.34H86.6365ZM80.5645 19.668C81.3271 19.668 82.0091 19.5067 82.6105 19.184C83.2265 18.8613 83.7031 18.414 84.0405 17.842C84.3925 17.2553 84.5685 16.5953 84.5685 15.862C84.5685 14.7327 84.1945 13.8233 83.4465 13.134C82.6985 12.43 81.7378 12.078 80.5645 12.078C79.3765 12.078 78.4085 12.43 77.6605 13.134C76.9125 13.8233 76.5385 14.7327 76.5385 15.862C76.5385 16.5953 76.7071 17.2553 77.0445 17.842C77.3965 18.414 77.8731 18.8613 78.4745 19.184C79.0905 19.5067 79.7871 19.668 80.5645 19.668ZM99.9461 8.514H94.6661V6.6H107.404V8.514H102.124V22H99.9461V8.514ZM111.237 12.298C111.604 11.6233 112.146 11.11 112.865 10.758C113.584 10.406 114.456 10.23 115.483 10.23V12.276C115.366 12.2613 115.204 12.254 114.999 12.254C113.855 12.254 112.953 12.5987 112.293 13.288C111.648 13.9627 111.325 14.9307 111.325 16.192V22H109.213V10.34H111.237V12.298ZM122.311 10.23C123.924 10.23 125.156 10.626 126.007 11.418C126.872 12.21 127.305 13.3907 127.305 14.96V22H125.303V20.46C124.951 21.0027 124.445 21.4207 123.785 21.714C123.139 21.9927 122.369 22.132 121.475 22.132C120.169 22.132 119.121 21.8167 118.329 21.186C117.551 20.5553 117.163 19.7267 117.163 18.7C117.163 17.6733 117.537 16.852 118.285 16.236C119.033 15.6053 120.221 15.29 121.849 15.29H125.193V14.872C125.193 13.9627 124.929 13.266 124.401 12.782C123.873 12.298 123.095 12.056 122.069 12.056C121.379 12.056 120.705 12.1733 120.045 12.408C119.385 12.628 118.827 12.9287 118.373 13.31L117.493 11.726C118.094 11.242 118.813 10.8753 119.649 10.626C120.485 10.362 121.372 10.23 122.311 10.23ZM121.827 20.504C122.633 20.504 123.33 20.328 123.917 19.976C124.503 19.6093 124.929 19.096 125.193 18.436V16.808H121.937C120.147 16.808 119.253 17.4093 119.253 18.612C119.253 19.1987 119.48 19.6607 119.935 19.998C120.389 20.3353 121.02 20.504 121.827 20.504ZM141.316 10.34L136.212 22H134.056L128.952 10.34H131.152L135.156 19.69L139.248 10.34H141.316ZM153.503 16.236C153.503 16.3973 153.488 16.61 153.459 16.874H143.999C144.131 17.9007 144.578 18.7293 145.341 19.36C146.118 19.976 147.079 20.284 148.223 20.284C149.616 20.284 150.738 19.8147 151.589 18.876L152.755 20.24C152.227 20.856 151.567 21.3253 150.775 21.648C149.998 21.9707 149.125 22.132 148.157 22.132C146.925 22.132 145.832 21.8827 144.879 21.384C143.926 20.8707 143.185 20.1593 142.657 19.25C142.144 18.3407 141.887 17.314 141.887 16.17C141.887 15.0407 142.136 14.0213 142.635 13.112C143.148 12.2027 143.845 11.4987 144.725 11C145.62 10.4867 146.624 10.23 147.739 10.23C148.854 10.23 149.844 10.4867 150.709 11C151.589 11.4987 152.271 12.2027 152.755 13.112C153.254 14.0213 153.503 15.0627 153.503 16.236ZM147.739 12.012C146.727 12.012 145.876 12.32 145.187 12.936C144.512 13.552 144.116 14.3587 143.999 15.356H151.479C151.362 14.3733 150.958 13.574 150.269 12.958C149.594 12.3273 148.751 12.012 147.739 12.012ZM156.436 5.676H158.548V22H156.436V5.676ZM173.118 16.236C173.118 16.3973 173.103 16.61 173.074 16.874H163.614C163.746 17.9007 164.193 18.7293 164.956 19.36C165.733 19.976 166.694 20.284 167.838 20.284C169.231 20.284 170.353 19.8147 171.204 18.876L172.37 20.24C171.842 20.856 171.182 21.3253 170.39 21.648C169.613 21.9707 168.74 22.132 167.772 22.132C166.54 22.132 165.447 21.8827 164.494 21.384C163.541 20.8707 162.8 20.1593 162.272 19.25C161.759 18.3407 161.502 17.314 161.502 16.17C161.502 15.0407 161.751 14.0213 162.25 13.112C162.763 12.2027 163.46 11.4987 164.34 11C165.235 10.4867 166.239 10.23 167.354 10.23C168.469 10.23 169.459 10.4867 170.324 11C171.204 11.4987 171.886 12.2027 172.37 13.112C172.869 14.0213 173.118 15.0627 173.118 16.236ZM167.354 12.012C166.342 12.012 165.491 12.32 164.802 12.936C164.127 13.552 163.731 14.3587 163.614 15.356H171.094C170.977 14.3733 170.573 13.574 169.884 12.958C169.209 12.3273 168.366 12.012 167.354 12.012ZM178.075 12.298C178.441 11.6233 178.984 11.11 179.703 10.758C180.421 10.406 181.294 10.23 182.321 10.23V12.276C182.203 12.2613 182.042 12.254 181.837 12.254C180.693 12.254 179.791 12.5987 179.131 13.288C178.485 13.9627 178.163 14.9307 178.163 16.192V22H176.051V10.34H178.075V12.298Z" fill="white"/>
<path d="M29.4175 2.66614C27.7578 1.00934 25.5081 0.0793826 23.163 0.0806949C20.8179 0.0820073 18.5692 1.01448 16.9114 2.67314L16.038 3.54654L15.152 2.66055C14.3353 1.8246 13.3609 1.15901 12.2852 0.702345C11.2094 0.245676 10.0538 0.00700275 8.88517 0.0001518C7.71654 -0.00669915 6.55817 0.218409 5.47716 0.662434C4.39615 1.10646 3.41399 1.76058 2.58759 2.58689C1.76118 3.4132 1.10696 4.39528 0.66281 5.47624C0.218663 6.5572 -0.00657395 7.71555 0.000146053 8.88418C0.00686606 10.0528 0.24541 11.2085 0.701959 12.2843C1.15851 13.36 1.82398 14.3345 2.65984 15.1513L7.75467 20.2461C8.54689 19.6863 9.28313 19.055 9.80381 18.1816C10.0085 17.8543 10.1439 17.4884 10.2017 17.1067C10.2594 16.725 10.2382 16.3355 10.1394 15.9623C10.0406 15.589 9.86635 15.24 9.62735 14.9368C9.38834 14.6337 9.08969 14.3827 8.74985 14.1995C8.11315 13.8496 7.4018 13.6576 6.67552 13.6396C5.54178 13.5907 4.78315 12.9902 4.65158 11.8313C4.52001 10.6723 5.04769 9.8899 6.17304 9.59176C7.43275 9.25864 8.25716 9.81291 8.77924 11.3078C9.19915 12.5255 9.87939 13.4857 11.1993 13.8426C11.5464 13.9364 11.6822 13.7334 11.8095 13.4703C12.4156 12.2106 12.0419 11.0992 11.3071 10.0369C10.9096 9.46439 10.6072 8.86673 10.8298 8.1361C11.0859 7.27669 11.636 6.71542 12.5234 6.56565C13.4108 6.41589 14.1218 6.75181 14.6229 7.51184C15.124 8.27187 15.0932 9.06268 14.5669 9.79752C13.8237 10.8333 13.3646 11.897 13.7971 13.2113C14.0056 13.8496 14.3038 13.9658 14.8958 13.725C16.0044 13.2757 16.5867 12.3925 16.924 11.3218C17.1507 10.5981 17.4461 9.94588 18.2005 9.67575C19.0165 9.38321 19.7989 9.4406 20.4694 10.0873C21.0992 10.6947 21.193 11.4337 20.9817 12.2176C20.7423 13.1092 20.0831 13.5781 19.1929 13.634C17.9206 13.7124 16.791 13.9994 16.0338 15.1513C15.6825 15.686 15.7357 16.0163 16.3137 16.3382C17.5034 17.0087 18.626 16.7749 19.8129 16.3018C20.8697 15.8819 21.7963 16.2458 22.3589 17.255C22.8908 18.211 22.7033 19.1306 21.8859 19.8262C21.0055 20.5737 20.0453 20.4841 19.1495 19.7968C18.9031 19.6079 18.7436 19.3097 18.5126 19.097C17.3131 17.9843 14.5585 17.6805 13.9287 18.7233C13.5004 19.4329 12.2686 21.7256 11.2595 23.7481L15.3829 27.8716C15.5535 28.0433 15.7848 28.1409 16.0268 28.1431C16.2675 28.1434 16.4985 28.0483 16.6692 27.8786L29.4063 15.1849C31.0646 13.5259 31.9974 11.2769 32 8.93121C32.0026 6.5855 31.0749 4.33448 29.4203 2.67174L29.4175 2.66614Z" fill="white"/>
</svg>
